<svg id="svg" version="1.1" xmlns="http://www.w3.org/2000/svg" xmlns:xlink="http://www.w3.org/1999/xlink" width="400" height="400" viewBox="0, 0, 400,400"><g id="svgg"><path id="path0" d="M72.074 53.781 C 71.234 54.540,70.353 55.755,70.118 56.481 C 69.882 57.206,65.152 69.590,59.607 84.000 C 38.218 139.582,19.964 187.661,16.744 196.900 L 15.803 199.600 16.742 202.300 C 18.057 206.083,24.531 223.499,28.562 234.102 C 34.186 248.895,40.028 264.215,45.912 279.600 C 48.983 287.630,55.764 305.360,60.980 319.000 C 69.735 341.895,70.583 343.915,72.017 345.300 C 74.826 348.014,79.208 347.091,80.821 343.446 L 81.587 341.713 80.442 338.356 C 77.435 329.549,60.692 284.884,47.396 250.200 C 33.548 214.076,28.400 200.378,28.400 199.655 C 28.400 198.853,31.224 191.313,44.676 156.200 C 72.445 83.715,81.751 58.321,81.222 56.476 C 80.019 52.282,75.279 50.885,72.074 53.781 M320.096 53.198 C 318.614 54.102,317.204 56.182,317.201 57.467 C 317.199 58.768,334.237 104.856,346.603 137.000 C 351.825 150.573,363.725 181.741,367.196 190.934 L 370.493 199.667 368.201 205.734 C 364.984 214.247,352.250 247.583,348.007 258.600 C 336.203 289.242,317.855 338.626,317.366 341.069 C 316.628 344.761,321.852 348.138,325.435 346.285 C 327.781 345.072,325.976 349.407,347.202 294.000 C 368.124 239.385,378.670 211.514,381.433 203.535 L 382.771 199.671 381.433 195.735 C 379.279 189.399,370.913 167.247,352.680 119.600 C 334.231 71.392,328.506 56.565,327.843 55.284 C 326.471 52.629,322.696 51.613,320.096 53.198 M250.800 65.869 C 234.566 66.895,218.983 72.946,204.607 83.805 C 177.721 104.114,162.132 134.926,143.999 203.600 C 134.677 238.901,129.693 249.856,116.796 263.389 C 109.236 271.322,107.200 274.145,107.200 276.694 C 107.200 283.958,124.361 278.476,136.502 267.334 C 138.020 265.940,139.474 264.804,139.732 264.808 C 147.688 264.948,158.888 266.998,178.989 271.995 C 221.414 282.540,234.694 282.607,254.612 272.374 C 273.178 262.835,290.800 242.924,290.800 231.486 C 290.800 224.885,271.317 231.131,262.496 240.561 C 260.203 243.013,259.512 244.201,256.558 250.779 C 255.921 252.198,254.635 254.403,253.701 255.679 L 252.002 258.000 248.075 258.000 C 239.429 258.000,230.096 256.283,204.600 250.002 C 191.230 246.709,186.639 245.765,177.400 244.410 C 175.860 244.185,170.820 243.815,166.200 243.590 C 161.580 243.364,157.417 243.139,156.948 243.090 C 156.159 243.007,156.246 242.752,158.150 239.600 C 164.310 229.403,170.371 213.640,174.993 195.800 C 190.016 137.813,200.394 111.579,214.756 95.281 C 219.729 89.638,223.242 88.000,230.372 88.000 C 244.244 88.000,247.802 94.865,246.162 118.465 C 245.755 124.319,249.892 125.096,259.854 121.034 C 271.186 116.414,278.253 109.095,279.253 100.944 C 282.147 77.338,271.768 64.543,250.800 65.869 " stroke="none" fill="#54247c" fill-rule="evenodd"></path><path id="path1" d="M70.466 38.200 C 62.779 40.079,58.793 44.236,54.828 54.508 C 53.535 57.859,49.234 69.060,45.271 79.400 C -0.987 200.096,0.141 196.933,1.377 202.473 C 2.286 206.549,2.677 207.701,8.222 222.600 C 14.545 239.592,45.640 321.082,55.370 346.164 C 58.913 355.295,63.308 359.424,71.366 361.193 L 75.688 362.141 79.744 361.227 C 88.312 359.296,93.740 354.175,95.551 346.313 C 97.182 339.230,97.802 341.281,78.475 289.800 C 71.612 271.520,68.684 263.807,60.480 242.400 C 49.296 213.220,44.400 200.197,44.400 199.631 C 44.400 199.024,50.739 182.216,63.192 149.800 C 79.182 108.179,94.258 67.369,95.577 62.133 C 99.366 47.096,86.039 34.394,70.466 38.200 M318.200 38.164 C 309.780 40.241,304.810 45.343,302.854 53.917 L 302.006 57.633 302.976 61.717 C 304.367 67.573,315.949 98.899,338.724 158.400 C 344.660 173.910,350.631 189.528,351.991 193.107 L 354.465 199.614 351.781 206.707 C 350.305 210.608,344.511 225.770,338.907 240.400 C 316.707 298.350,304.164 332.313,302.825 338.101 L 302.014 341.602 302.859 345.301 C 304.364 351.894,309.747 358.838,314.392 360.180 C 329.280 364.481,337.951 359.858,343.904 344.448 C 375.846 261.749,395.479 209.587,396.938 203.538 L 397.870 199.677 396.790 195.338 C 395.321 189.440,390.773 177.109,371.590 127.000 C 361.911 101.717,345.282 58.365,343.407 53.526 C 338.498 40.853,329.509 35.375,318.200 38.164 M247.200 51.057 C 210.430 55.630,181.724 76.071,160.771 112.600 C 150.912 129.788,140.993 157.343,130.606 196.400 C 121.016 232.460,117.096 241.244,104.832 254.151 C 96.351 263.077,94.324 266.230,92.804 272.864 L 91.918 276.728 92.793 280.570 C 96.855 298.402,118.646 299.537,141.056 283.084 C 143.320 281.423,145.103 280.400,145.737 280.400 C 149.193 280.400,159.818 282.473,172.311 285.584 C 204.925 293.706,209.943 294.577,224.200 294.588 L 235.000 294.597 240.400 293.292 C 253.699 290.078,262.253 286.261,272.742 278.860 C 291.249 265.803,301.326 252.447,304.997 236.111 L 306.006 231.623 305.061 227.617 C 303.273 220.032,299.365 216.307,291.200 214.403 C 276.234 210.912,250.169 225.583,244.584 240.643 C 244.185 241.719,243.822 242.653,243.778 242.717 C 243.269 243.467,227.406 240.376,210.400 236.212 C 196.703 232.858,184.873 230.295,181.400 229.927 C 179.930 229.771,179.936 229.695,181.778 224.655 C 184.221 217.973,186.682 209.650,190.236 196.047 C 199.573 160.313,207.006 138.240,215.038 122.400 C 221.176 110.294,226.904 102.800,230.020 102.800 L 231.542 102.800 231.819 105.010 C 232.108 107.328,232.023 108.868,231.188 116.400 C 228.649 139.316,252.569 145.614,277.151 128.501 C 290.771 119.019,295.454 108.836,294.671 90.400 C 293.554 64.098,273.823 47.746,247.200 51.057 M79.093 53.024 C 80.367 53.859,81.597 55.954,81.599 57.293 C 81.601 59.126,67.559 96.986,45.803 153.800 C 39.485 170.300,32.977 187.356,31.342 191.703 L 28.369 199.605 31.555 208.103 C 33.308 212.776,39.809 229.830,46.002 246.000 C 65.635 297.259,81.600 340.171,81.600 341.679 C 81.600 343.742,78.947 346.586,76.614 347.024 C 72.987 347.704,71.104 345.849,68.470 339.000 C 62.252 322.830,33.703 248.227,30.203 239.000 C 23.608 221.615,18.149 206.961,16.959 203.452 L 15.621 199.505 18.249 192.252 C 21.561 183.111,27.758 166.671,38.472 138.600 C 61.867 77.304,70.563 54.921,71.287 54.130 C 73.243 51.993,76.759 51.495,79.093 53.024 M324.913 52.551 C 327.291 53.568,328.194 55.107,331.512 63.800 C 333.275 68.420,340.515 87.320,347.599 105.800 C 372.243 170.085,382.800 198.203,382.800 199.557 C 382.800 201.251,369.223 237.297,337.508 319.800 C 327.393 346.112,327.761 345.298,325.470 346.466 C 322.420 348.022,319.357 346.866,317.681 343.527 L 316.761 341.695 320.137 332.348 C 325.136 318.509,340.161 278.548,351.400 249.200 C 366.902 208.719,370.000 200.470,370.000 199.662 C 370.000 198.691,368.203 193.905,349.922 146.200 C 339.332 118.562,322.114 72.678,318.936 63.625 L 316.769 57.451 317.695 55.625 C 319.169 52.722,322.248 51.410,324.913 52.551 M263.400 66.787 C 274.578 70.339,279.849 78.980,279.755 93.600 C 279.684 104.451,278.816 107.148,273.800 112.100 C 266.086 119.714,252.870 125.280,247.421 123.208 C 245.559 122.500,245.398 121.419,246.190 114.917 C 248.576 95.309,241.239 85.560,226.200 88.354 C 209.522 91.453,193.818 124.004,176.194 192.000 C 170.393 214.383,164.956 228.838,158.116 240.065 C 156.173 243.254,155.914 243.085,162.874 243.175 C 175.007 243.331,185.718 245.060,206.289 250.183 C 233.907 257.060,249.774 259.479,252.217 257.184 C 253.780 255.716,255.528 252.758,257.453 248.321 C 258.428 246.076,259.953 243.275,260.843 242.097 C 266.985 233.962,285.620 225.731,289.884 229.270 C 294.556 233.147,283.526 251.473,269.838 262.573 C 248.197 280.124,229.238 283.683,196.260 276.383 C 192.267 275.499,183.745 273.440,177.322 271.807 C 159.298 267.226,152.281 265.908,143.200 265.400 L 139.000 265.165 136.200 267.806 C 125.804 277.612,109.427 283.376,107.205 278.011 C 106.148 275.460,108.083 272.398,116.243 263.712 C 129.754 249.332,134.476 238.971,144.002 202.800 C 162.849 131.239,179.365 100.375,209.735 79.960 C 226.590 68.630,250.629 62.729,263.400 66.787 " stroke="none" fill="#fcfcfc" fill-rule="evenodd"></path><path id="path2" d="M74.900 52.276 C 75.285 52.376,75.915 52.376,76.300 52.276 C 76.685 52.175,76.370 52.093,75.600 52.093 C 74.830 52.093,74.515 52.175,74.900 52.276 M279.748 92.400 C 279.748 94.710,279.814 95.655,279.895 94.500 C 279.976 93.345,279.976 91.455,279.895 90.300 C 279.814 89.145,279.748 90.090,279.748 92.400 M322.305 347.083 C 322.802 347.179,323.522 347.175,323.905 347.075 C 324.287 346.975,323.880 346.896,323.000 346.901 C 322.120 346.905,321.807 346.987,322.305 347.083 " stroke="none" fill="#b9a7ca" fill-rule="evenodd"></path><path id="path3" d="M216.378 93.500 L 215.000 95.000 216.500 93.622 C 217.896 92.338,218.184 92.000,217.878 92.000 C 217.812 92.000,217.137 92.675,216.378 93.500 M163.500 243.482 C 163.995 243.578,164.805 243.578,165.300 243.482 C 165.795 243.387,165.390 243.309,164.400 243.309 C 163.410 243.309,163.005 243.387,163.500 243.482 " stroke="none" fill="#9c84b2" fill-rule="evenodd"></path><path id="path4" d="" stroke="none" fill="#a48cb4" fill-rule="evenodd"></path></g></svg>